<svg width="138" height="39" viewBox="0 0 138 39" fill="none" xmlns="http://www.w3.org/2000/svg">
<rect width="129" height="39" rx="8" fill="#FFAC3C"/>
<path d="M17.72 25.16C16.8667 25.16 16.072 25.0213 15.336 24.744C14.6107 24.456 13.976 24.056 13.432 23.544C12.8987 23.0213 12.4827 22.408 12.184 21.704C11.8853 21 11.736 20.232 11.736 19.4C11.736 18.568 11.8853 17.8 12.184 17.096C12.4827 16.392 12.904 15.784 13.448 15.272C13.992 14.7493 14.6267 14.3493 15.352 14.072C16.0773 13.784 16.872 13.64 17.736 13.64C18.6533 13.64 19.4907 13.8 20.248 14.12C21.0053 14.4293 21.6453 14.8933 22.168 15.512L20.824 16.776C20.4187 16.3387 19.9653 16.0133 19.464 15.8C18.9627 15.576 18.4187 15.464 17.832 15.464C17.2453 15.464 16.7067 15.56 16.216 15.752C15.736 15.944 15.3147 16.216 14.952 16.568C14.6 16.92 14.3227 17.336 14.12 17.816C13.928 18.296 13.832 18.824 13.832 19.4C13.832 19.976 13.928 20.504 14.12 20.984C14.3227 21.464 14.6 21.88 14.952 22.232C15.3147 22.584 15.736 22.856 16.216 23.048C16.7067 23.24 17.2453 23.336 17.832 23.336C18.4187 23.336 18.9627 23.2293 19.464 23.016C19.9653 22.792 20.4187 22.456 20.824 22.008L22.168 23.288C21.6453 23.896 21.0053 24.36 20.248 24.68C19.4907 25 18.648 25.16 17.72 25.16ZM30.0033 25L26.9153 20.904L28.5473 19.896L32.3553 25H30.0033ZM23.8753 25V16.456H25.8753V25H23.8753ZM25.2833 21.576V19.912H28.1793V21.576H25.2833ZM28.7393 20.968L26.8673 20.744L30.0033 16.456H32.1473L28.7393 20.968ZM38.7936 25V23.272L38.6816 22.904V19.88C38.6816 19.2933 38.5056 18.84 38.1536 18.52C37.8016 18.1893 37.2683 18.024 36.5536 18.024C36.0736 18.024 35.599 18.0987 35.1296 18.248C34.671 18.3973 34.2816 18.6053 33.9616 18.872L33.1776 17.416C33.6363 17.064 34.1803 16.8027 34.8096 16.632C35.4496 16.4507 36.111 16.36 36.7936 16.36C38.031 16.36 38.9856 16.6587 39.6576 17.256C40.3403 17.8427 40.6816 18.7547 40.6816 19.992V25H38.7936ZM36.1056 25.112C35.4656 25.112 34.9056 25.0053 34.4256 24.792C33.9456 24.568 33.5723 24.264 33.3056 23.88C33.0496 23.4853 32.9216 23.0427 32.9216 22.552C32.9216 22.072 33.0336 21.64 33.2576 21.256C33.4923 20.872 33.871 20.568 34.3936 20.344C34.9163 20.12 35.6096 20.008 36.4736 20.008H38.9536V21.336H36.6176C35.935 21.336 35.4763 21.448 35.2416 21.672C35.007 21.8853 34.8896 22.152 34.8896 22.472C34.8896 22.8347 35.0336 23.1227 35.3216 23.336C35.6096 23.5493 36.0096 23.656 36.5216 23.656C37.0123 23.656 37.4496 23.544 37.8336 23.32C38.2283 23.096 38.511 22.7653 38.6816 22.328L39.0176 23.528C38.8256 24.0293 38.479 24.4187 37.9776 24.696C37.487 24.9733 36.863 25.112 36.1056 25.112ZM48.5485 21.624C48.1432 21.816 47.7112 21.976 47.2525 22.104C46.8045 22.2213 46.3298 22.28 45.8285 22.28C44.7512 22.28 43.9138 22.0293 43.3165 21.528C42.7192 21.0267 42.4205 20.248 42.4205 19.192V16.456H44.4205V19.064C44.4205 19.6293 44.5805 20.04 44.9005 20.296C45.2312 20.552 45.6845 20.68 46.2605 20.68C46.6445 20.68 47.0285 20.632 47.4125 20.536C47.7965 20.44 48.1752 20.3067 48.5485 20.136V21.624ZM48.4045 25V16.456H50.4045V25H48.4045ZM58.278 25V23.272L58.166 22.904V19.88C58.166 19.2933 57.99 18.84 57.638 18.52C57.286 18.1893 56.7527 18.024 56.038 18.024C55.558 18.024 55.0833 18.0987 54.614 18.248C54.1553 18.3973 53.766 18.6053 53.446 18.872L52.662 17.416C53.1207 17.064 53.6647 16.8027 54.294 16.632C54.934 16.4507 55.5953 16.36 56.278 16.36C57.5153 16.36 58.47 16.6587 59.142 17.256C59.8247 17.8427 60.166 18.7547 60.166 19.992V25H58.278ZM55.59 25.112C54.95 25.112 54.39 25.0053 53.91 24.792C53.43 24.568 53.0567 24.264 52.79 23.88C52.534 23.4853 52.406 23.0427 52.406 22.552C52.406 22.072 52.518 21.64 52.742 21.256C52.9767 20.872 53.3553 20.568 53.878 20.344C54.4007 20.12 55.094 20.008 55.958 20.008H58.438V21.336H56.102C55.4193 21.336 54.9607 21.448 54.726 21.672C54.4913 21.8853 54.374 22.152 54.374 22.472C54.374 22.8347 54.518 23.1227 54.806 23.336C55.094 23.5493 55.494 23.656 56.006 23.656C56.4967 23.656 56.934 23.544 57.318 23.32C57.7127 23.096 57.9953 22.7653 58.166 22.328L58.502 23.528C58.31 24.0293 57.9633 24.4187 57.462 24.696C56.9713 24.9733 56.3473 25.112 55.59 25.112ZM64.4169 25V17.672L64.8809 18.152H61.4089V16.456H69.4089V18.152H65.9529L66.4169 17.672V25H64.4169ZM75.1476 19.272C76.2463 19.272 77.0836 19.5173 77.6596 20.008C78.2356 20.4987 78.5236 21.192 78.5236 22.088C78.5236 23.016 78.2036 23.7413 77.5636 24.264C76.9236 24.776 76.0223 25.0267 74.8596 25.016L70.8596 25V16.456H72.8596V19.256L75.1476 19.272ZM74.6836 23.544C75.2703 23.5547 75.7183 23.432 76.0276 23.176C76.337 22.92 76.4916 22.5467 76.4916 22.056C76.4916 21.5653 76.337 21.2133 76.0276 21C75.729 20.776 75.281 20.6587 74.6836 20.648L72.8596 20.632V23.528L74.6836 23.544ZM83.2794 25L88.3194 13.8H90.3674L95.4234 25H93.2474L88.9114 14.904H89.7434L85.4234 25H83.2794ZM85.5994 22.408L86.1594 20.776H92.2074L92.7674 22.408H85.5994ZM96.8478 25V13.8H101.456C102.448 13.8 103.296 13.96 104 14.28C104.714 14.6 105.264 15.0587 105.648 15.656C106.032 16.2533 106.224 16.9627 106.224 17.784C106.224 18.6053 106.032 19.3147 105.648 19.912C105.264 20.5093 104.714 20.968 104 21.288C103.296 21.608 102.448 21.768 101.456 21.768H97.9998L98.9278 20.792V25H96.8478ZM98.9278 21.016L97.9998 20.008H101.36C102.277 20.008 102.965 19.816 103.424 19.432C103.893 19.0373 104.128 18.488 104.128 17.784C104.128 17.0693 103.893 16.52 103.424 16.136C102.965 15.752 102.277 15.56 101.36 15.56H97.9998L98.9278 14.536V21.016ZM110.157 22.36L110.045 19.896L115.917 13.8H118.253L113.373 18.984L112.221 20.248L110.157 22.36ZM108.301 25V13.8H110.381V25H108.301ZM116.109 25L111.821 19.896L113.197 18.376L118.541 25H116.109Z" fill="black"/>
</svg>
