<svg width="181" height="43" viewBox="0 0 181 43" fill="none" xmlns="http://www.w3.org/2000/svg">
<rect width="136" height="39" rx="8" fill="#FFAC3C"/>
<path fill-rule="evenodd" clip-rule="evenodd" d="M9.04331 6.97601C8.75269 7.28794 8.58606 7.76844 8.58606 8.39296V30.5993C8.58606 31.2238 8.75269 31.7043 9.05429 32.0053L9.13308 32.0718L21.5757 19.6292V19.3495L9.12211 6.90948L9.04331 6.97601Z" fill="url(#paint0_linear_21_30)"/>
<path fill-rule="evenodd" clip-rule="evenodd" d="M25.7149 23.7929L21.5647 19.6414V19.3508L25.7161 15.1994L25.8059 15.2549L30.7162 18.0456C32.1222 18.838 32.1222 20.1439 30.7162 20.9473L25.8059 23.738C25.8046 23.7373 25.7149 23.7929 25.7149 23.7929Z" fill="url(#paint1_linear_21_30)"/>
<path fill-rule="evenodd" clip-rule="evenodd" d="M25.8046 23.7373L21.5647 19.4961L9.04331 32.0175C9.50056 32.509 10.2704 32.5646 11.1306 32.0841L25.8046 23.7373Z" fill="url(#paint2_linear_21_30)"/>
<path fill-rule="evenodd" clip-rule="evenodd" d="M25.8046 15.2562L11.1306 6.92045C10.2717 6.42897 9.50056 6.49549 9.04331 6.98697L21.5634 19.4961L25.8046 15.2562Z" fill="url(#paint3_linear_21_30)"/>
<path d="M37.798 17.072C37.318 17.072 36.874 16.994 36.466 16.838C36.064 16.676 35.713 16.451 35.413 16.163C35.119 15.869 34.888 15.527 34.72 15.137C34.552 14.747 34.468 14.318 34.468 13.85C34.468 13.382 34.552 12.953 34.72 12.563C34.888 12.173 35.122 11.834 35.422 11.546C35.722 11.252 36.073 11.027 36.475 10.871C36.883 10.709 37.327 10.628 37.807 10.628C38.293 10.628 38.74 10.712 39.148 10.88C39.562 11.042 39.913 11.285 40.201 11.609L39.616 12.176C39.376 11.924 39.106 11.738 38.806 11.618C38.506 11.492 38.185 11.429 37.843 11.429C37.489 11.429 37.159 11.489 36.853 11.609C36.553 11.729 36.292 11.897 36.07 12.113C35.848 12.329 35.674 12.587 35.548 12.887C35.428 13.181 35.368 13.502 35.368 13.85C35.368 14.198 35.428 14.522 35.548 14.822C35.674 15.116 35.848 15.371 36.07 15.587C36.292 15.803 36.553 15.971 36.853 16.091C37.159 16.211 37.489 16.271 37.843 16.271C38.185 16.271 38.506 16.211 38.806 16.091C39.106 15.965 39.376 15.773 39.616 15.515L40.201 16.082C39.913 16.406 39.562 16.652 39.148 16.82C38.74 16.988 38.29 17.072 37.798 17.072ZM44.753 17L42.908 14.678L43.619 14.246L45.77 17H44.753ZM41.297 17V12.23H42.161V17H41.297ZM41.9 14.984V14.246H43.475V14.984H41.9ZM43.691 14.714L42.89 14.606L44.717 12.23H45.644L43.691 14.714ZM49.513 17V15.992L49.468 15.803V14.084C49.468 13.718 49.36 13.436 49.144 13.238C48.934 13.034 48.616 12.932 48.19 12.932C47.908 12.932 47.632 12.98 47.362 13.076C47.092 13.166 46.864 13.289 46.678 13.445L46.318 12.797C46.564 12.599 46.858 12.449 47.2 12.347C47.548 12.239 47.911 12.185 48.289 12.185C48.943 12.185 49.447 12.344 49.801 12.662C50.155 12.98 50.332 13.466 50.332 14.12V17H49.513ZM47.947 17.054C47.593 17.054 47.281 16.994 47.011 16.874C46.747 16.754 46.543 16.589 46.399 16.379C46.255 16.163 46.183 15.92 46.183 15.65C46.183 15.392 46.243 15.158 46.363 14.948C46.489 14.738 46.69 14.57 46.966 14.444C47.248 14.318 47.626 14.255 48.1 14.255H49.612V14.876H48.136C47.704 14.876 47.413 14.948 47.263 15.092C47.113 15.236 47.038 15.41 47.038 15.614C47.038 15.848 47.131 16.037 47.317 16.181C47.503 16.319 47.761 16.388 48.091 16.388C48.415 16.388 48.697 16.316 48.937 16.172C49.183 16.028 49.36 15.818 49.468 15.542L49.639 16.136C49.525 16.418 49.324 16.643 49.036 16.811C48.748 16.973 48.385 17.054 47.947 17.054ZM54.8938 15.047C54.6418 15.167 54.3808 15.263 54.1108 15.335C53.8468 15.401 53.5738 15.434 53.2918 15.434C52.7158 15.434 52.2598 15.299 51.9238 15.029C51.5938 14.759 51.4288 14.342 51.4288 13.778V12.23H52.2928V13.724C52.2928 14.066 52.3978 14.318 52.6078 14.48C52.8238 14.642 53.1118 14.723 53.4718 14.723C53.6998 14.723 53.9338 14.693 54.1738 14.633C54.4198 14.573 54.6598 14.489 54.8938 14.381V15.047ZM54.8308 17V12.23H55.6948V17H54.8308ZM60.2972 17V15.992L60.2522 15.803V14.084C60.2522 13.718 60.1442 13.436 59.9282 13.238C59.7182 13.034 59.4002 12.932 58.9742 12.932C58.6922 12.932 58.4162 12.98 58.1462 13.076C57.8762 13.166 57.6482 13.289 57.4622 13.445L57.1022 12.797C57.3482 12.599 57.6422 12.449 57.9842 12.347C58.3322 12.239 58.6952 12.185 59.0732 12.185C59.7272 12.185 60.2312 12.344 60.5852 12.662C60.9392 12.98 61.1162 13.466 61.1162 14.12V17H60.2972ZM58.7312 17.054C58.3772 17.054 58.0652 16.994 57.7952 16.874C57.5312 16.754 57.3272 16.589 57.1832 16.379C57.0392 16.163 56.9672 15.92 56.9672 15.65C56.9672 15.392 57.0272 15.158 57.1472 14.948C57.2732 14.738 57.4742 14.57 57.7502 14.444C58.0322 14.318 58.4102 14.255 58.8842 14.255H60.3962V14.876H58.9202C58.4882 14.876 58.1972 14.948 58.0472 15.092C57.8972 15.236 57.8222 15.41 57.8222 15.614C57.8222 15.848 57.9152 16.037 58.1012 16.181C58.2872 16.319 58.5452 16.388 58.8752 16.388C59.1992 16.388 59.4812 16.316 59.7212 16.172C59.9672 16.028 60.1442 15.818 60.2522 15.542L60.4232 16.136C60.3092 16.418 60.1082 16.643 59.8202 16.811C59.5322 16.973 59.1692 17.054 58.7312 17.054ZM62.672 17V12.23H63.536V15.704L66.461 12.23H67.244V17H66.38V13.526L63.464 17H62.672ZM64.904 11.609C64.466 11.609 64.121 11.504 63.869 11.294C63.623 11.078 63.497 10.769 63.491 10.367H64.076C64.082 10.595 64.157 10.775 64.301 10.907C64.451 11.039 64.649 11.105 64.895 11.105C65.141 11.105 65.339 11.039 65.489 10.907C65.639 10.775 65.717 10.595 65.723 10.367H66.326C66.32 10.769 66.191 11.078 65.939 11.294C65.687 11.504 65.342 11.609 64.904 11.609ZM69.866 17V12.761L70.082 12.986H68.12V12.23H72.476V12.986H70.523L70.73 12.761V17H69.866ZM75.2725 17.054C74.7625 17.054 74.3125 16.949 73.9225 16.739C73.5385 16.529 73.2385 16.241 73.0225 15.875C72.8125 15.509 72.7075 15.089 72.7075 14.615C72.7075 14.141 72.8095 13.721 73.0135 13.355C73.2235 12.989 73.5085 12.704 73.8685 12.5C74.2345 12.29 74.6455 12.185 75.1015 12.185C75.5635 12.185 75.9715 12.287 76.3255 12.491C76.6795 12.695 76.9555 12.983 77.1535 13.355C77.3575 13.721 77.4595 14.15 77.4595 14.642C77.4595 14.678 77.4565 14.72 77.4505 14.768C77.4505 14.816 77.4475 14.861 77.4415 14.903H73.3825V14.282H76.9915L76.6405 14.498C76.6465 14.192 76.5835 13.919 76.4515 13.679C76.3195 13.439 76.1365 13.253 75.9025 13.121C75.6745 12.983 75.4075 12.914 75.1015 12.914C74.8015 12.914 74.5345 12.983 74.3005 13.121C74.0665 13.253 73.8835 13.442 73.7515 13.688C73.6195 13.928 73.5535 14.204 73.5535 14.516V14.66C73.5535 14.978 73.6255 15.263 73.7695 15.515C73.9195 15.761 74.1265 15.953 74.3905 16.091C74.6545 16.229 74.9575 16.298 75.2995 16.298C75.5815 16.298 75.8365 16.25 76.0645 16.154C76.2985 16.058 76.5025 15.914 76.6765 15.722L77.1535 16.28C76.9375 16.532 76.6675 16.724 76.3435 16.856C76.0255 16.988 75.6685 17.054 75.2725 17.054ZM81.2169 17V12.23H83.4309C83.9889 12.23 84.4269 12.338 84.7449 12.554C85.0689 12.764 85.2309 13.064 85.2309 13.454C85.2309 13.844 85.0779 14.147 84.7719 14.363C84.4719 14.573 84.0729 14.678 83.5749 14.678L83.7099 14.444C84.2799 14.444 84.7029 14.549 84.9789 14.759C85.2549 14.969 85.3929 15.278 85.3929 15.686C85.3929 16.1 85.2369 16.424 84.9249 16.658C84.6189 16.886 84.1479 17 83.5119 17H81.2169ZM82.0629 16.334H83.4489C83.8089 16.334 84.0789 16.28 84.2589 16.172C84.4389 16.058 84.5289 15.878 84.5289 15.632C84.5289 15.38 84.4449 15.197 84.2769 15.083C84.1149 14.963 83.8569 14.903 83.5029 14.903H82.0629V16.334ZM82.0629 14.282H83.3589C83.6889 14.282 83.9379 14.222 84.1059 14.102C84.2799 13.976 84.3669 13.802 84.3669 13.58C84.3669 13.352 84.2799 13.181 84.1059 13.067C83.9379 12.953 83.6889 12.896 83.3589 12.896H82.0629V14.282ZM40.206 28.072C39.72 28.072 39.273 27.994 38.865 27.838C38.457 27.676 38.103 27.451 37.803 27.163C37.503 26.869 37.269 26.527 37.101 26.137C36.933 25.747 36.849 25.318 36.849 24.85C36.849 24.382 36.933 23.953 37.101 23.563C37.269 23.173 37.503 22.834 37.803 22.546C38.109 22.252 38.466 22.027 38.874 21.871C39.282 21.709 39.732 21.628 40.224 21.628C40.722 21.628 41.178 21.709 41.592 21.871C42.006 22.033 42.357 22.276 42.645 22.6L42.087 23.158C41.829 22.906 41.547 22.723 41.241 22.609C40.941 22.489 40.614 22.429 40.26 22.429C39.9 22.429 39.564 22.489 39.252 22.609C38.946 22.729 38.679 22.897 38.451 23.113C38.229 23.329 38.055 23.587 37.929 23.887C37.809 24.181 37.749 24.502 37.749 24.85C37.749 25.192 37.809 25.513 37.929 25.813C38.055 26.107 38.229 26.365 38.451 26.587C38.679 26.803 38.946 26.971 39.252 27.091C39.558 27.211 39.891 27.271 40.251 27.271C40.587 27.271 40.908 27.22 41.214 27.118C41.526 27.01 41.814 26.833 42.078 26.587L42.591 27.271C42.279 27.535 41.913 27.736 41.493 27.874C41.079 28.006 40.65 28.072 40.206 28.072ZM41.727 27.154V24.814H42.591V27.271L41.727 27.154ZM46.2311 28.054C45.7511 28.054 45.3251 27.949 44.9531 27.739C44.5811 27.529 44.2871 27.241 44.0711 26.875C43.8551 26.503 43.7471 26.083 43.7471 25.615C43.7471 25.141 43.8551 24.721 44.0711 24.355C44.2871 23.989 44.5811 23.704 44.9531 23.5C45.3251 23.29 45.7511 23.185 46.2311 23.185C46.7051 23.185 47.1281 23.29 47.5001 23.5C47.8781 23.704 48.1721 23.989 48.3821 24.355C48.5981 24.715 48.7061 25.135 48.7061 25.615C48.7061 26.089 48.5981 26.509 48.3821 26.875C48.1721 27.241 47.8781 27.529 47.5001 27.739C47.1281 27.949 46.7051 28.054 46.2311 28.054ZM46.2311 27.298C46.5371 27.298 46.8101 27.229 47.0501 27.091C47.2961 26.953 47.4881 26.758 47.6261 26.506C47.7641 26.248 47.8331 25.951 47.8331 25.615C47.8331 25.273 47.7641 24.979 47.6261 24.733C47.4881 24.481 47.2961 24.286 47.0501 24.148C46.8101 24.01 46.5371 23.941 46.2311 23.941C45.9251 23.941 45.6521 24.01 45.4121 24.148C45.1721 24.286 44.9801 24.481 44.8361 24.733C44.6921 24.979 44.6201 25.273 44.6201 25.615C44.6201 25.951 44.6921 26.248 44.8361 26.506C44.9801 26.758 45.1721 26.953 45.4121 27.091C45.6521 27.229 45.9251 27.298 46.2311 27.298ZM51.944 28.054C51.464 28.054 51.038 27.949 50.666 27.739C50.294 27.529 50 27.241 49.784 26.875C49.568 26.503 49.46 26.083 49.46 25.615C49.46 25.141 49.568 24.721 49.784 24.355C50 23.989 50.294 23.704 50.666 23.5C51.038 23.29 51.464 23.185 51.944 23.185C52.418 23.185 52.841 23.29 53.213 23.5C53.591 23.704 53.885 23.989 54.095 24.355C54.311 24.715 54.419 25.135 54.419 25.615C54.419 26.089 54.311 26.509 54.095 26.875C53.885 27.241 53.591 27.529 53.213 27.739C52.841 27.949 52.418 28.054 51.944 28.054ZM51.944 27.298C52.25 27.298 52.523 27.229 52.763 27.091C53.009 26.953 53.201 26.758 53.339 26.506C53.477 26.248 53.546 25.951 53.546 25.615C53.546 25.273 53.477 24.979 53.339 24.733C53.201 24.481 53.009 24.286 52.763 24.148C52.523 24.01 52.25 23.941 51.944 23.941C51.638 23.941 51.365 24.01 51.125 24.148C50.885 24.286 50.693 24.481 50.549 24.733C50.405 24.979 50.333 25.273 50.333 25.615C50.333 25.951 50.405 26.248 50.549 26.506C50.693 26.758 50.885 26.953 51.125 27.091C51.365 27.229 51.638 27.298 51.944 27.298ZM57.7019 29.8C57.2639 29.8 56.8379 29.737 56.4239 29.611C56.0159 29.491 55.6829 29.317 55.4249 29.089L55.8389 28.423C56.0609 28.615 56.3339 28.765 56.6579 28.873C56.9819 28.987 57.3209 29.044 57.6749 29.044C58.2389 29.044 58.6529 28.912 58.9169 28.648C59.1809 28.384 59.3129 27.982 59.3129 27.442V26.434L59.4029 25.489L59.3579 24.535V23.23H60.1769V27.352C60.1769 28.192 59.9669 28.81 59.5469 29.206C59.1269 29.602 58.5119 29.8 57.7019 29.8ZM57.5939 27.802C57.1319 27.802 56.7179 27.706 56.3519 27.514C55.9919 27.316 55.7039 27.043 55.4879 26.695C55.2779 26.347 55.1729 25.945 55.1729 25.489C55.1729 25.027 55.2779 24.625 55.4879 24.283C55.7039 23.935 55.9919 23.665 56.3519 23.473C56.7179 23.281 57.1319 23.185 57.5939 23.185C58.0019 23.185 58.3739 23.269 58.7099 23.437C59.0459 23.599 59.3129 23.851 59.5109 24.193C59.7149 24.535 59.8169 24.967 59.8169 25.489C59.8169 26.005 59.7149 26.434 59.5109 26.776C59.3129 27.118 59.0459 27.376 58.7099 27.55C58.3739 27.718 58.0019 27.802 57.5939 27.802ZM57.6929 27.046C58.0109 27.046 58.2929 26.98 58.5389 26.848C58.7849 26.716 58.9769 26.533 59.1149 26.299C59.2589 26.065 59.3309 25.795 59.3309 25.489C59.3309 25.183 59.2589 24.913 59.1149 24.679C58.9769 24.445 58.7849 24.265 58.5389 24.139C58.2929 24.007 58.0109 23.941 57.6929 23.941C57.3749 23.941 57.0899 24.007 56.8379 24.139C56.5919 24.265 56.3969 24.445 56.2529 24.679C56.1149 24.913 56.0459 25.183 56.0459 25.489C56.0459 25.795 56.1149 26.065 56.2529 26.299C56.3969 26.533 56.5919 26.716 56.8379 26.848C57.0899 26.98 57.3749 27.046 57.6929 27.046ZM61.8278 28V21.322H62.6918V28H61.8278ZM66.4655 28.054C65.9555 28.054 65.5055 27.949 65.1155 27.739C64.7315 27.529 64.4315 27.241 64.2155 26.875C64.0055 26.509 63.9005 26.089 63.9005 25.615C63.9005 25.141 64.0025 24.721 64.2065 24.355C64.4165 23.989 64.7015 23.704 65.0615 23.5C65.4275 23.29 65.8385 23.185 66.2945 23.185C66.7565 23.185 67.1645 23.287 67.5185 23.491C67.8725 23.695 68.1485 23.983 68.3465 24.355C68.5505 24.721 68.6525 25.15 68.6525 25.642C68.6525 25.678 68.6495 25.72 68.6435 25.768C68.6435 25.816 68.6405 25.861 68.6345 25.903H64.5755V25.282H68.1845L67.8335 25.498C67.8395 25.192 67.7765 24.919 67.6445 24.679C67.5125 24.439 67.3295 24.253 67.0955 24.121C66.8675 23.983 66.6005 23.914 66.2945 23.914C65.9945 23.914 65.7275 23.983 65.4935 24.121C65.2595 24.253 65.0765 24.442 64.9445 24.688C64.8125 24.928 64.7465 25.204 64.7465 25.516V25.66C64.7465 25.978 64.8185 26.263 64.9625 26.515C65.1125 26.761 65.3195 26.953 65.5835 27.091C65.8475 27.229 66.1505 27.298 66.4925 27.298C66.7745 27.298 67.0295 27.25 67.2575 27.154C67.4915 27.058 67.6955 26.914 67.8695 26.722L68.3465 27.28C68.1305 27.532 67.8605 27.724 67.5365 27.856C67.2185 27.988 66.8615 28.054 66.4655 28.054ZM72.3952 28V21.7H74.8522C75.4042 21.7 75.8752 21.787 76.2652 21.961C76.6552 22.135 76.9552 22.387 77.1652 22.717C77.3752 23.047 77.4802 23.44 77.4802 23.896C77.4802 24.352 77.3752 24.745 77.1652 25.075C76.9552 25.399 76.6552 25.651 76.2652 25.831C75.8752 26.005 75.4042 26.092 74.8522 26.092H72.8902L73.2952 25.669V28H72.3952ZM73.2952 25.759L72.8902 25.309H74.8252C75.4012 25.309 75.8362 25.186 76.1302 24.94C76.4302 24.694 76.5802 24.346 76.5802 23.896C76.5802 23.446 76.4302 23.098 76.1302 22.852C75.8362 22.606 75.4012 22.483 74.8252 22.483H72.8902L73.2952 22.033V25.759ZM78.7643 28V21.322H79.6283V28H78.7643ZM84.239 28V26.992L84.194 26.803V25.084C84.194 24.718 84.086 24.436 83.87 24.238C83.66 24.034 83.342 23.932 82.916 23.932C82.634 23.932 82.358 23.98 82.088 24.076C81.818 24.166 81.59 24.289 81.404 24.445L81.044 23.797C81.29 23.599 81.584 23.449 81.926 23.347C82.274 23.239 82.637 23.185 83.015 23.185C83.669 23.185 84.173 23.344 84.527 23.662C84.881 23.98 85.058 24.466 85.058 25.12V28H84.239ZM82.673 28.054C82.319 28.054 82.007 27.994 81.737 27.874C81.473 27.754 81.269 27.589 81.125 27.379C80.981 27.163 80.909 26.92 80.909 26.65C80.909 26.392 80.969 26.158 81.089 25.948C81.215 25.738 81.416 25.57 81.692 25.444C81.974 25.318 82.352 25.255 82.826 25.255H84.338V25.876H82.862C82.43 25.876 82.139 25.948 81.989 26.092C81.839 26.236 81.764 26.41 81.764 26.614C81.764 26.848 81.857 27.037 82.043 27.181C82.229 27.319 82.487 27.388 82.817 27.388C83.141 27.388 83.423 27.316 83.663 27.172C83.909 27.028 84.086 26.818 84.194 26.542L84.365 27.136C84.251 27.418 84.05 27.643 83.762 27.811C83.474 27.973 83.111 28.054 82.673 28.054ZM86.776 29.8C86.548 29.8 86.326 29.761 86.11 29.683C85.894 29.611 85.708 29.503 85.552 29.359L85.921 28.711C86.041 28.825 86.173 28.912 86.317 28.972C86.461 29.032 86.614 29.062 86.776 29.062C86.986 29.062 87.16 29.008 87.298 28.9C87.436 28.792 87.565 28.6 87.685 28.324L87.982 27.667L88.072 27.559L89.944 23.23H90.79L88.477 28.477C88.339 28.813 88.183 29.077 88.009 29.269C87.841 29.461 87.655 29.596 87.451 29.674C87.247 29.758 87.022 29.8 86.776 29.8ZM87.91 28.153L85.732 23.23H86.632L88.486 27.478L87.91 28.153ZM94.1753 28V21.7H94.9133L97.7393 26.461H97.3433L100.133 21.7H100.871L100.88 28H100.016L100.007 23.059H100.214L97.7303 27.235H97.3163L94.8143 23.059H95.0393V28H94.1753ZM105.622 28V26.992L105.577 26.803V25.084C105.577 24.718 105.469 24.436 105.253 24.238C105.043 24.034 104.725 23.932 104.299 23.932C104.017 23.932 103.741 23.98 103.471 24.076C103.201 24.166 102.973 24.289 102.787 24.445L102.427 23.797C102.673 23.599 102.967 23.449 103.309 23.347C103.657 23.239 104.02 23.185 104.398 23.185C105.052 23.185 105.556 23.344 105.91 23.662C106.264 23.98 106.441 24.466 106.441 25.12V28H105.622ZM104.056 28.054C103.702 28.054 103.39 27.994 103.12 27.874C102.856 27.754 102.652 27.589 102.508 27.379C102.364 27.163 102.292 26.92 102.292 26.65C102.292 26.392 102.352 26.158 102.472 25.948C102.598 25.738 102.799 25.57 103.075 25.444C103.357 25.318 103.735 25.255 104.209 25.255H105.721V25.876H104.245C103.813 25.876 103.522 25.948 103.372 26.092C103.222 26.236 103.147 26.41 103.147 26.614C103.147 26.848 103.24 27.037 103.426 27.181C103.612 27.319 103.87 27.388 104.2 27.388C104.524 27.388 104.806 27.316 105.046 27.172C105.292 27.028 105.469 26.818 105.577 26.542L105.748 27.136C105.634 27.418 105.433 27.643 105.145 27.811C104.857 27.973 104.494 28.054 104.056 28.054ZM110.526 28.054C110.13 28.054 109.767 27.964 109.437 27.784C109.113 27.598 108.852 27.325 108.654 26.965C108.462 26.605 108.366 26.155 108.366 25.615C108.366 25.075 108.459 24.625 108.645 24.265C108.837 23.905 109.095 23.635 109.419 23.455C109.749 23.275 110.118 23.185 110.526 23.185C110.994 23.185 111.408 23.287 111.768 23.491C112.128 23.695 112.413 23.98 112.623 24.346C112.833 24.706 112.938 25.129 112.938 25.615C112.938 26.101 112.833 26.527 112.623 26.893C112.413 27.259 112.128 27.544 111.768 27.748C111.408 27.952 110.994 28.054 110.526 28.054ZM107.997 29.746V23.23H108.825V24.517L108.771 25.624L108.861 26.731V29.746H107.997ZM110.454 27.298C110.76 27.298 111.033 27.229 111.273 27.091C111.519 26.953 111.711 26.758 111.849 26.506C111.993 26.248 112.065 25.951 112.065 25.615C112.065 25.273 111.993 24.979 111.849 24.733C111.711 24.481 111.519 24.286 111.273 24.148C111.033 24.01 110.76 23.941 110.454 23.941C110.154 23.941 109.881 24.01 109.635 24.148C109.395 24.286 109.203 24.481 109.059 24.733C108.921 24.979 108.852 25.273 108.852 25.615C108.852 25.951 108.921 26.248 109.059 26.506C109.203 26.758 109.395 26.953 109.635 27.091C109.881 27.229 110.154 27.298 110.454 27.298ZM117.649 28L115.804 25.678L116.515 25.246L118.666 28H117.649ZM114.193 28V23.23H115.057V28H114.193ZM114.796 25.984V25.246H116.371V25.984H114.796ZM116.587 25.714L115.786 25.606L117.613 23.23H118.54L116.587 25.714ZM121.538 28.054C121.028 28.054 120.578 27.949 120.188 27.739C119.804 27.529 119.504 27.241 119.288 26.875C119.078 26.509 118.973 26.089 118.973 25.615C118.973 25.141 119.075 24.721 119.279 24.355C119.489 23.989 119.774 23.704 120.134 23.5C120.5 23.29 120.911 23.185 121.367 23.185C121.829 23.185 122.237 23.287 122.591 23.491C122.945 23.695 123.221 23.983 123.419 24.355C123.623 24.721 123.725 25.15 123.725 25.642C123.725 25.678 123.722 25.72 123.716 25.768C123.716 25.816 123.713 25.861 123.707 25.903H119.648V25.282H123.257L122.906 25.498C122.912 25.192 122.849 24.919 122.717 24.679C122.585 24.439 122.402 24.253 122.168 24.121C121.94 23.983 121.673 23.914 121.367 23.914C121.067 23.914 120.8 23.983 120.566 24.121C120.332 24.253 120.149 24.442 120.017 24.688C119.885 24.928 119.819 25.204 119.819 25.516V25.66C119.819 25.978 119.891 26.263 120.035 26.515C120.185 26.761 120.392 26.953 120.656 27.091C120.92 27.229 121.223 27.298 121.565 27.298C121.847 27.298 122.102 27.25 122.33 27.154C122.564 27.058 122.768 26.914 122.942 26.722L123.419 27.28C123.203 27.532 122.933 27.724 122.609 27.856C122.291 27.988 121.934 28.054 121.538 28.054ZM125.808 28V23.761L126.024 23.986H124.062V23.23H128.418V23.986H126.465L126.672 23.761V28H125.808Z" fill="black"/>
<defs>
<linearGradient id="paint0_linear_21_30" x1="28.9886" y1="-0.387559" x2="2.13695" y2="6.77213" gradientUnits="userSpaceOnUse">
<stop stop-color="#047ED6"/>
<stop offset="1" stop-color="#50E6FF"/>
</linearGradient>
<linearGradient id="paint1_linear_21_30" x1="32.5474" y1="19.4952" x2="18.6266" y2="19.4952" gradientUnits="userSpaceOnUse">
<stop stop-color="#FFDA1C"/>
<stop offset="1" stop-color="#FEB705"/>
</linearGradient>
<linearGradient id="paint2_linear_21_30" x1="23.4955" y1="21.8008" x2="7.49738" y2="48.7313" gradientUnits="userSpaceOnUse">
<stop stop-color="#D9414F"/>
<stop offset="1" stop-color="#8C193F"/>
</linearGradient>
<linearGradient id="paint3_linear_21_30" x1="5.88923" y1="-0.413235" x2="13.0261" y2="11.6155" gradientUnits="userSpaceOnUse">
<stop stop-color="#33C481"/>
<stop offset="1" stop-color="#61E3A7"/>
</linearGradient>
</defs>
</svg>
